<svg width="150" height="176" viewBox="0 0 150 176" fill="none" xmlns="http://www.w3.org/2000/svg">
<g id="Frame" clip-path="url(#clip0_1_36)">
<g id="Group">
<g id="Layer 2">
<g id="Group_2">
<g id="Group_3">
<path id="Vector" d="M5.57305 168.154L0 151.83H4.48039L8.08283 164.792L11.7473 151.83H15.9748L10.3684 168.149H5.57782L5.57305 168.154Z" fill="white"/>
<path id="Vector_2" d="M28.1277 168.154L27.7221 167.025C25.4986 168.001 23.9002 168.436 22.0823 168.436C18.9522 168.436 17.2583 166.676 17.2583 164.166V163.066C17.2583 159.738 19.4818 157.984 23.4612 157.984H27.1591V156.822C27.1591 155.411 26.7821 154.751 24.6207 154.751C22.9602 154.751 20.1737 155.096 18.9188 155.349L18.1363 152.212C20.8942 151.744 23.3037 151.552 25.2791 151.552C29.0677 151.552 31.2005 152.714 31.2005 156.826V168.158H28.1325L28.1277 168.154ZM27.1543 160.623C26.8108 160.623 25.0549 160.623 23.8954 160.685C21.9868 160.747 21.2663 161.374 21.2663 162.727V163.635C21.2663 164.735 21.8294 165.237 23.0843 165.237C24.2103 165.237 26.3432 164.482 27.1543 164.171V160.623Z" fill="white"/>
<path id="Vector_3" d="M42.7522 167.776C41.5307 168.278 40.1517 168.436 39.0543 168.436C36.3632 168.436 35.4853 166.867 35.4853 165.046V145.49L39.5267 144.61V163.788C39.5267 164.668 39.5601 165.108 40.5287 165.108C40.8722 165.108 41.6547 164.95 42.1891 164.826L42.7522 167.776Z" fill="white"/>
<path id="Vector_4" d="M49.2986 151.83V162.469C49.2986 164.099 49.6135 165.199 51.3646 165.199C52.5241 165.199 54.0891 164.477 54.9957 164.161V151.825H59.0371V168.144H56.0597L55.5253 167.016C54.2418 167.642 52.5193 168.426 50.5773 168.426C46.4739 168.426 45.2524 165.978 45.2524 162.904V151.825H49.2938L49.2986 151.83Z" fill="white"/>
<path id="Vector_5" d="M77.3356 167.212C76.0807 167.685 72.9507 168.436 69.5677 168.436C65.2162 168.436 62.9259 166.963 62.9259 162.66V157.797C62.9259 153.871 64.8678 151.552 69.5343 151.552H70.7892C75.3602 151.552 77.3022 153.876 77.3022 157.831V161.063H66.9673V162.727C66.9673 164.548 67.6878 165.208 69.6918 165.208C71.9773 165.208 74.5157 164.802 76.3622 164.238L77.3356 167.221V167.212ZM73.2656 157.042C73.2656 155.349 72.4831 154.627 70.4457 154.627H69.8492C67.8118 154.627 66.9673 155.349 66.9673 157.042V158.423H73.2608V157.042H73.2656Z" fill="white"/>
<path id="Vector_6" d="M92.3991 163.635C92.3991 166.523 90.6432 168.436 86.4491 168.436C84.5405 168.436 82.6272 168.249 80.7186 167.838L81.1242 166.145C83.2856 166.614 85.1322 166.772 86.4157 166.772C88.9207 166.772 90.4237 166.05 90.4237 163.568V163.382C90.3903 161.249 89.6698 160.776 87.1648 160.776H85.3469C82.2454 160.776 80.9333 159.772 80.9333 156.788V156.664C80.9333 153.589 82.7178 152.112 85.9147 152.112C87.8233 152.112 90.2997 152.428 91.9267 152.676L91.4591 154.307C89.9227 154.053 87.6372 153.771 86.1056 153.771C83.257 153.771 82.9087 154.995 82.9087 156.626C82.9087 158.634 83.381 158.916 85.7572 158.916H87.5418C90.2997 158.916 92.3943 159.671 92.3943 163.31V163.626L92.3991 163.635Z" fill="white"/>
<path id="Vector_7" d="M110.158 168.154L106.117 154.249L102.076 168.154H99.3511L94.8421 152.399H96.9415L100.701 166.648L104.743 152.743H107.501L111.542 166.648L115.364 152.399H117.368L112.859 168.154H110.168H110.158Z" fill="white"/>
<path id="Vector_8" d="M130.552 168.154L130.113 166.834C127.636 167.776 125.823 168.436 124.129 168.436C121.371 168.436 119.778 167.116 119.778 164.606V163.32C119.778 160.403 121.596 158.768 125.26 158.768H129.96V157.166C129.96 154.813 129.616 153.776 126.233 153.776C124.73 153.776 122.349 154.12 121.066 154.436L120.689 152.772C123.099 152.27 124.979 152.112 126.734 152.112C130.022 152.112 131.902 153.116 131.902 156.884V168.154H130.556H130.552ZM129.955 160.369H125.818C122.812 160.369 121.715 161.216 121.715 163.415V164.391C121.715 166.15 122.559 166.681 124.535 166.681C126.381 166.681 129.955 165.27 129.955 165.27V160.374V160.369Z" fill="white"/>
<path id="Vector_9" d="M137.222 176V152.399H138.663L139.102 153.781C141.421 152.777 143.454 152.117 145.367 152.117C148.998 152.117 150.005 154.187 150.005 157.171V163.544C150.005 167.25 148.029 168.441 145.181 168.441C143.205 168.441 140.829 167.905 139.197 167.374V175.503L137.222 176.005V176ZM148.029 157.701C148.029 155.096 147.433 153.809 144.899 153.809C143.616 153.809 140.982 154.656 139.197 155.378V165.61C140.357 166.083 142.766 166.772 144.522 166.772C147.438 166.772 148.029 165.452 148.029 163.224V157.701Z" fill="white"/>
</g>
<g id="Group_4">
<path id="Vector_10" d="M103.101 69.9381C93.9784 85.7408 85.1703 101.003 75.9042 117.054C53.3257 77.8562 31.086 39.2508 8.55997 0.148225H62.7159C66.0511 5.9242 69.52 11.9297 73.0699 18.0738C70.0973 23.2043 67.1772 28.2392 63.9565 33.8C60.2491 27.4455 56.8757 21.6599 53.4784 15.8313H35.8574C49.2986 39.0978 62.4582 61.8814 75.971 85.2722C79.0152 79.9409 81.8208 75.0256 84.6025 70.1485C78.6859 59.6963 72.8409 49.3731 66.8528 38.7918C74.2676 25.9154 81.6872 13.0246 89.1831 0H143.325C130.771 21.8846 118.465 43.339 105.835 65.3575C102.562 59.5767 99.5992 54.3458 96.7459 49.3014C103.23 38.0077 109.443 27.1968 115.908 15.9413H98.2632C94.0452 23.2521 89.6221 30.9216 85.0511 38.8396C91.0631 49.1914 97.0703 59.5433 103.106 69.9381H103.101Z" fill="white"/>
<path id="Vector_11" style="mix-blend-mode:multiply" opacity="0.26" d="M103.101 69.9381C93.9784 85.7408 85.1703 101.003 75.9042 117.054C53.3257 77.8562 31.086 39.2508 8.55997 0.148225H62.7159C66.0511 5.9242 69.52 11.9297 73.0699 18.0738C70.0973 23.2043 67.1772 28.2392 63.9565 33.8C60.2491 27.4455 56.8757 21.6599 53.4784 15.8313H35.8574C49.2986 39.0978 62.4582 61.8814 75.971 85.2722C79.0152 79.9409 81.8208 75.0256 84.6025 70.1485C78.6859 59.6963 72.8409 49.3731 66.8528 38.7918C74.2676 25.9154 81.6872 13.0246 89.1831 0H143.325C130.771 21.8846 118.465 43.339 105.835 65.3575C102.562 59.5767 99.5992 54.3458 96.7459 49.3014C103.23 38.0077 109.443 27.1968 115.908 15.9413H98.2632C94.0452 23.2521 89.6221 30.9216 85.0511 38.8396C91.0631 49.1914 97.0703 59.5433 103.106 69.9381H103.101Z" fill="url(#paint0_radial_1_36)"/>
<path id="Vector_12" style="mix-blend-mode:multiply" d="M35.8527 15.8313C49.2938 39.0978 62.4535 61.8814 75.9662 85.2722L66.7955 101.084C44.2122 61.8814 31.086 39.2508 8.55997 0.148224L35.8574 15.8266L35.8527 15.8313Z" fill="url(#paint1_linear_1_36)"/>
</g>
</g>
</g>
</g>
</g>
<defs>
<radialGradient id="paint0_radial_1_36" cx="0" cy="0" r="1" gradientUnits="userSpaceOnUse" gradientTransform="translate(75.9376 58.5344) scale(63.0547 252.747)">
<stop stop-color="white" stop-opacity="0"/>
<stop offset="1" stop-opacity="0.6"/>
</radialGradient>
<linearGradient id="paint1_linear_1_36" x1="8.55997" y1="50.6163" x2="75.9662" y2="50.6163" gradientUnits="userSpaceOnUse">
<stop offset="0.81" stop-color="white" stop-opacity="0"/>
<stop offset="1" stop-opacity="0.6"/>
</linearGradient>
<clipPath id="clip0_1_36">
<rect width="150" height="176" fill="white"/>
</clipPath>
</defs>
</svg>
